<?xml version="1.0" encoding="UTF-8"?>
<svg width="512" height="512" viewBox="0 0 24 24" xmlns="http://www.w3.org/2000/svg">
  <path fill="#3B82F6" d="M20.56 10.94a8.002 8.002 0 0 0-14.2-3.82L6 7.5L5 10l-2.5.5L3 13l2.24-.94c.8 1.22 1.92 2.2 3.26 2.82L9 19h6l.5-3.5 3-2a7.84 7.84 0 0 0 2.06-2.56ZM7.68 14.22A5.99 5.99 0 0 1 5.5 9.5c0-3.31 2.69-6 6-6s6 2.69 6 6-2.69 6-6 6c-1.57 0-2.95-.58-4-1.5l-1.35 1.7a8.05 8.05 0 0 0 5.35 2.03c4.42 0 8-3.58 8-8s-3.58-8-8-8-8 3.58-8 8c0 2.52 1.17 4.77 3 6.24l.68-.75Z"/>
  <circle cx="11.5" cy="9.5" r="2.5" fill="#3B82F6"/>
</svg>
